# xmcd
#
# Track frame offsets:
#	182
#	21415
#	41287
#	77575
#	95317
#	118412
#	133765
#	147575
#
# Disc length: 2191 seconds
#
# Revision: 1
# Processed by: cddbd v1.4PL0 Copyright (c) Steve Scherf et al.
# Submitted via: EasyCDDAExtractor 5.1.0
#
DISCID=6c088d08
DTITLE=Roy 'C' - Rock Me All Night
DYEAR=1989
DGENRE=Bklues
TTITLE0=Rock Me All Night
TTITLE1=I Wanna Make You Shine Like A Star
TTITLE2=Save By The Bell (Infidelity Georgia)
TTITLE3=I'm So In Love With You
TTITLE4=Are You Gonna Stand Up
TTITLE5=My Girl
TTITLE6=I'm A Jealous Man
TTITLE7=I Should Have Shot The Man
EXTD=
EXTT0=
EXTT1=
EXTT2=
EXTT3=
EXTT4=
EXTT5=
EXTT6=
EXTT7=
PLAYORDER=
